<svg width="80" height="80" viewBox="0 0 80 80" fill="none" xmlns="http://www.w3.org/2000/svg">
<g opacity="0.8" clip-path="url(#clip0)">
<path fill-rule="evenodd" clip-rule="evenodd" d="M23.4375 30.7816C26.0264 30.7816 28.125 32.8802 28.125 35.4691C28.125 38.058 26.0264 40.1566 23.4375 40.1566C20.8486 40.1566 18.75 38.058 18.75 35.4691C18.75 32.8802 20.8486 30.7816 23.4375 30.7816ZM9.48656 42.5002H5.85953C5.85953 41.2113 4.80469 40.1564 3.51547 40.1564C2.22688 40.1564 1.17188 41.2111 1.17188 42.5002V47.1878C1.17188 48.4767 2.22672 49.5316 3.51547 49.5316C4.80469 49.5316 5.85953 48.4767 5.85953 47.1878H9.48656C10.5942 58.908 19.9203 68.2341 31.6405 69.3417V72.9688C30.3514 72.9688 29.2967 74.0235 29.2967 75.3125C29.2967 76.6016 30.3514 77.6563 31.6405 77.6563H36.3281C37.6172 77.6563 38.6719 76.6016 38.6719 75.3125C38.6719 74.0235 37.6172 72.9688 36.3281 72.9688V69.3416C48.0483 68.2339 57.3744 58.9078 58.482 47.1877H62.1092C62.1092 48.4766 63.1641 49.5314 64.4533 49.5314C65.7419 49.5314 66.7969 48.4767 66.7969 47.1877V42.5C66.7969 41.211 65.742 40.1563 64.4533 40.1563C63.1641 40.1563 62.1092 41.2111 62.1092 42.5H58.482C58.1906 39.4167 57.3298 36.4994 56.0069 33.8538C55.3386 33.5696 54.6931 33.2422 54.0736 32.8753H48.2966V27.0985C47.6936 26.0805 47.1975 24.9919 46.8237 23.8477C43.7139 21.9419 40.1483 20.7072 36.3281 20.3461V16.7189C37.6172 16.7189 38.6719 15.6642 38.6719 14.3752C38.6719 13.0861 37.6172 12.0314 36.3281 12.0314H31.6405C30.3514 12.0314 29.2967 13.0861 29.2967 14.3752C29.2967 15.6642 30.3514 16.7189 31.6405 16.7189V20.3461C19.9205 21.4538 10.5942 30.7802 9.48656 42.5002ZM28.1248 46.0156C32.0081 46.0156 35.1561 49.1636 35.1561 53.0469C35.1561 56.9302 32.0081 60.0781 28.1248 60.0781C24.2416 60.0781 21.0936 56.9302 21.0936 53.0469C21.0936 49.1638 24.2417 46.0156 28.1248 46.0156ZM33.9842 36.641C33.9842 34.6994 35.5583 33.1253 37.4998 33.1253C39.4414 33.1253 41.0155 34.6994 41.0155 36.641C41.0155 38.5827 39.4414 40.1566 37.4998 40.1566C35.5581 40.1566 33.9842 38.5825 33.9842 36.641ZM45.7028 44.8439C48.2916 44.8439 50.3903 46.9425 50.3903 49.5314C50.3903 52.1202 48.2916 54.2189 45.7028 54.2189C43.1139 54.2189 41.0153 52.1202 41.0153 49.5314C41.0153 46.9425 43.1139 44.8439 45.7028 44.8439Z" fill="#9CE3BF"/>
<path fill-rule="evenodd" clip-rule="evenodd" d="M44.7809 28.0117C43.7619 26.0741 43.0755 23.9909 42.7395 21.8398C44.1695 22.3845 45.5356 23.0586 46.8236 23.8478C47.1973 24.9919 47.6934 26.0806 48.2964 27.0986V32.8755H54.0734C54.6928 33.2423 55.3384 33.5697 56.0067 33.8539C56.6809 35.202 57.235 36.6208 57.6548 38.0959C56.0983 37.7133 54.5897 37.1425 53.1605 36.3911H44.7809V28.0117Z" fill="#52CD8D"/>
<path fill-rule="evenodd" clip-rule="evenodd" d="M15.0052 29.1794C16.0025 27.9724 17.1127 26.8622 18.3197 25.8649L14.9255 22.4707C15.837 21.5592 15.837 20.0677 14.9255 19.1561C14.0139 18.2447 12.5225 18.2447 11.6109 19.1561L8.29626 22.4708C7.38485 23.3822 7.38485 24.8738 8.29626 25.7853C9.20782 26.6969 10.6994 26.6967 11.6108 25.7853L15.0052 29.1794Z" fill="#52CD8D"/>
<path fill-rule="evenodd" clip-rule="evenodd" d="M15.0052 60.5085L11.6111 63.9025C10.6997 62.9911 9.20797 62.9911 8.29641 63.9027C7.38516 64.8139 7.385 66.3056 8.29656 67.217L11.6113 70.5317C12.5227 71.4431 14.0144 71.443 14.9256 70.5317C15.8372 69.6202 15.8372 68.1285 14.9258 67.217L18.3198 63.823C17.1128 62.8256 16.0025 61.7153 15.0052 60.5085Z" fill="#52CD8D"/>
<path fill-rule="evenodd" clip-rule="evenodd" d="M49.6488 63.823L53.043 67.2171C52.1314 68.1285 52.1314 69.6201 53.043 70.5316C53.9544 71.443 55.4459 71.443 56.3575 70.5316L59.6722 67.2169C60.5836 66.3054 60.5836 64.814 59.6722 63.9024C58.7606 62.991 57.2691 62.991 56.3577 63.9024L52.9636 60.5082C51.9659 61.7155 50.8558 62.8257 49.6488 63.823Z" fill="#52CD8D"/>
<path d="M28.1248 60.0782C32.0081 60.0782 35.1561 56.9302 35.1561 53.0469C35.1561 49.1637 32.0081 46.0157 28.1248 46.0157C24.2416 46.0157 21.0936 49.1637 21.0936 53.0469C21.0936 56.9302 24.2416 60.0782 28.1248 60.0782Z" fill="#52CD8D"/>
<path d="M27.7804 37.2728C28.772 34.8807 27.6366 32.1378 25.2445 31.1462C22.8524 30.1547 20.1095 31.2901 19.1179 33.6822C18.1264 36.0743 19.2618 38.8172 21.6539 39.8087C24.046 40.8003 26.7889 39.6649 27.7804 37.2728Z" fill="#52CD8D"/>
<path d="M37.4998 40.1566C39.4415 40.1566 41.0155 38.5826 41.0155 36.641C41.0155 34.6993 39.4415 33.1253 37.4998 33.1253C35.5582 33.1253 33.9842 34.6993 33.9842 36.641C33.9842 38.5826 35.5582 40.1566 37.4998 40.1566Z" fill="#52CD8D"/>
<path d="M45.7028 54.2189C48.2916 54.2189 50.3903 52.1203 50.3903 49.5314C50.3903 46.9426 48.2916 44.8439 45.7028 44.8439C43.114 44.8439 41.0153 46.9426 41.0153 49.5314C41.0153 52.1203 43.114 54.2189 45.7028 54.2189Z" fill="#52CD8D"/>
<path fill-rule="evenodd" clip-rule="evenodd" d="M48.2964 32.8755H54.0734C56.6047 34.3746 59.4762 35.1563 62.4219 35.1563C71.4839 35.1563 78.8281 27.8121 78.8281 18.75C78.8281 9.688 71.4839 2.34378 62.4219 2.34378C53.3598 2.34378 46.0156 9.688 46.0156 18.75C46.0156 21.6949 46.7962 24.5661 48.2964 27.0986V32.8755ZM58.8523 25.8891L55.2828 22.3196L58.8523 18.75L55.2828 15.1805L58.8523 11.611L62.4219 15.1805L65.9914 11.611L69.5609 15.1805L65.9914 18.75L69.5609 22.3196L65.9914 25.8891L62.4219 22.3196L58.8523 25.8891Z" fill="#A4D7F5"/>
<path fill-rule="evenodd" clip-rule="evenodd" d="M55.2828 22.3195L58.8523 25.8891L62.4219 22.3195L65.9914 25.8891L69.5609 22.3195L65.9914 18.75L69.5609 15.1805L65.9914 11.6109L62.4219 15.1805L58.8523 11.6109L55.2828 15.1805L58.8523 18.75L55.2828 22.3195Z" fill="#D15573"/>
<path fill-rule="evenodd" clip-rule="evenodd" d="M9.48656 42.5002H5.85953C5.85953 41.2113 4.80469 40.1564 3.51547 40.1564C2.22688 40.1564 1.17188 41.2111 1.17188 42.5002V47.1878C1.17188 48.4767 2.22672 49.5316 3.51547 49.5316C4.80469 49.5316 5.85953 48.4767 5.85953 47.1878H9.48656C10.5942 58.908 19.9203 68.2341 31.6405 69.3417C6.07328 63.4522 7.02094 26.8316 31.6405 20.3464C19.9205 21.4537 10.5942 30.7802 9.48656 42.5002Z" fill="#52CD8D"/>
<path d="M43.0327 29.7211H40.6889V27.3774H43.0327V29.7211ZM38.3452 27.3775H36.0014V25.0338H38.3452V27.3775Z" fill="white"/>
<path fill-rule="evenodd" clip-rule="evenodd" d="M48.2964 32.8755H51.812V27.0986C50.3119 24.5661 49.5312 21.6949 49.5312 18.75C49.5312 10.2819 55.9445 3.31471 64.1797 2.43768C54.4955 1.40612 46.0156 8.96799 46.0156 18.75C46.0156 21.6949 46.7962 24.5661 48.2964 27.0986V32.8755Z" fill="#6E91EF"/>
<path d="M43.2156 68.9197L42.3758 66.7316C40.4003 67.4897 38.3284 67.9753 36.2177 68.1747L35.1561 68.275V74.1406H36.328C36.9742 74.1406 37.4998 74.6662 37.4998 75.3125C37.4998 75.9586 36.9742 76.4844 36.328 76.4844H31.6405C30.9942 76.4844 30.4686 75.9586 30.4686 75.3125C30.4686 74.6662 30.9942 74.1406 31.6405 74.1406H32.8123V68.2751L31.7508 68.1748C20.5816 67.1194 11.7087 58.2466 10.6533 47.0775L10.5528 46.0159H4.68766V47.1878C4.68766 47.8341 4.16188 48.3597 3.51547 48.3597C2.86937 48.3597 2.34375 47.8341 2.34375 47.1878V42.5003C2.34375 41.8541 2.86937 41.3284 3.51547 41.3284C4.16188 41.3284 4.68766 41.8541 4.68766 42.5003V43.6722H10.5528L10.6533 42.6106C10.8408 40.6266 11.2823 38.6722 11.9658 36.802L9.76422 35.9978C9.13453 37.7216 8.69125 39.5101 8.4425 41.3286H6.83063C6.34687 39.9645 5.04344 38.9848 3.51547 38.9848C1.57703 38.9845 0 40.5616 0 42.5001V47.1876C0 49.1262 1.57703 50.7033 3.51547 50.7033C5.04344 50.7033 6.34687 49.7236 6.83063 48.3595H8.44234C9.055 52.8526 10.823 56.9751 13.4369 60.4194L11.4691 62.3872C10.162 61.7645 8.54797 61.9934 7.46766 63.0741C6.80562 63.7361 6.44109 64.6189 6.44109 65.5598C6.44109 66.5008 6.80578 67.3837 7.46781 68.0458L10.7825 71.3605C11.468 72.0459 12.368 72.3886 13.2684 72.3886C14.1686 72.3886 15.0689 72.0459 15.7542 71.3606C16.8345 70.2801 17.0636 68.6659 16.4411 67.3592L18.4089 65.3916C21.8531 68.0055 25.9755 69.7734 30.4688 70.3861V71.998C29.1047 72.4816 28.125 73.785 28.125 75.3128C28.125 77.2514 29.7022 78.8284 31.6406 78.8284H36.3281C38.2666 78.8284 39.8438 77.2514 39.8438 75.3128C39.8438 73.785 38.8641 72.4816 37.5 71.998V70.3859C39.4555 70.1183 41.3736 69.6267 43.2156 68.9197ZM13.2684 67.217L14.097 68.0456C14.3166 68.2651 14.4375 68.5594 14.4375 68.8742C14.4375 69.1892 14.3166 69.4834 14.0969 69.7031C13.8777 69.9225 13.5833 70.0433 13.2684 70.0433C12.9534 70.0433 12.6594 69.9225 12.4398 69.703L9.125 66.3883C8.90563 66.1689 8.78469 65.8745 8.78469 65.5597C8.78469 65.2448 8.90547 64.9506 9.125 64.7312C9.58156 64.2744 10.3252 64.2741 10.7825 64.7312L11.6112 65.5598L14.9436 62.2273C15.4708 62.8045 16.0238 63.3575 16.6009 63.8847L13.2684 67.217Z" fill="black"/>
<path d="M65.9914 27.5463L71.2181 22.3195L67.6486 18.75L71.2181 15.1805L65.9914 9.95377L62.4219 13.5233L58.8523 9.95377L53.6256 15.1805L57.1952 18.75L53.6256 22.3195L58.8523 27.5463L62.4219 23.9767L65.9914 27.5463ZM56.9402 22.3195L60.5097 18.75L56.9402 15.1805L58.8523 13.2683L62.4219 16.8378L65.9914 13.2683L67.9036 15.1805L64.3341 18.75L67.9036 22.3195L65.9914 24.2317L62.4219 20.6622L58.8523 24.2317L56.9402 22.3195Z" fill="black"/>
<path d="M80 18.75C80 9.05734 72.1144 1.17188 62.4219 1.17188C52.7294 1.17188 44.8437 9.05734 44.8437 18.75C44.8437 19.6955 44.92 20.6355 45.0695 21.5613C42.6789 20.4175 40.145 19.6605 37.4998 19.3017V17.6902C38.8639 17.2066 39.8436 15.9031 39.8436 14.3753C39.8436 12.4369 38.2664 10.8597 36.328 10.8597H31.6405C29.702 10.8597 28.1248 12.4367 28.1248 14.3753C28.1248 15.9031 29.1045 17.2066 30.4686 17.6902V19.3023C26.3839 19.8616 22.4736 21.4031 19.0998 23.7927C18.8672 23.9575 18.6377 24.1264 18.4108 24.2986L16.4411 22.3289C16.6636 21.8622 16.7811 21.347 16.7811 20.8133C16.7811 19.8723 16.4162 18.9895 15.7542 18.3273C15.092 17.6652 14.2092 17.3005 13.2683 17.3005C12.3275 17.3005 11.4445 17.665 10.7823 18.3273L7.46796 21.6419C6.80578 22.3041 6.44093 23.1869 6.44093 24.1278C6.44093 25.0688 6.80578 25.9516 7.46781 26.6138C8.13 27.2759 9.01296 27.6406 9.9539 27.6406C10.4877 27.6406 11.0027 27.5233 11.4694 27.3008L13.4416 29.273C12.387 30.6619 11.47 32.1553 10.7152 33.7336L12.8294 34.7448C16.3655 27.3517 23.6156 22.2816 31.7508 21.5128L32.8123 21.4125V15.5472H31.6405C30.9942 15.5472 30.4686 15.0216 30.4686 14.3753C30.4686 13.7292 30.9942 13.2034 31.6405 13.2034H36.328C36.9742 13.2034 37.4998 13.7291 37.4998 14.3753C37.4998 15.0216 36.9742 15.5472 36.328 15.5472H35.1561V21.4127L36.2177 21.513C39.6536 21.8377 42.8945 22.8898 45.8591 24.6378C46.1992 25.5956 46.6206 26.5253 47.1247 27.4136V34.0473H53.7584C54.2084 34.3027 54.6697 34.5356 55.1389 34.7492C56.3236 37.2256 57.0559 39.868 57.3151 42.6105L57.4156 43.672H63.2808V42.5002C63.2808 41.8539 63.8066 41.3283 64.453 41.3283C65.0991 41.3283 65.6247 41.8539 65.6247 42.5002V47.1877C65.6247 47.8339 65.0991 48.3595 64.453 48.3595C63.8066 48.3595 63.2808 47.8338 63.2808 47.1877V46.0158H57.4156L57.3151 47.0773C56.9376 51.0723 55.5247 54.9258 53.2292 58.2212C50.9797 61.4508 47.933 64.0831 44.4184 65.8337L45.4634 67.9317C46.9056 67.2133 48.2759 66.3597 49.5561 65.3877L51.5272 67.3587C51.3047 67.8255 51.1872 68.3406 51.1872 68.8744C51.1872 69.8153 51.5517 70.6981 52.2141 71.3605C52.8761 72.0227 53.7591 72.3872 54.6998 72.3872C55.6408 72.3872 56.5236 72.0225 57.1858 71.3603L60.5003 68.0458C61.1625 67.3836 61.5273 66.5008 61.5273 65.5598C61.5273 64.6191 61.1625 63.7361 60.5003 63.0739C59.8383 62.4117 58.9553 62.0472 58.0144 62.0472C57.4806 62.0472 56.9656 62.1645 56.4989 62.387L54.5273 60.4153C54.7406 60.1345 54.9505 59.8508 55.1523 59.5611C57.4742 56.2277 58.9756 52.375 59.5256 48.3597H61.1377C61.6214 49.7239 62.9248 50.7034 64.4528 50.7034C66.3912 50.7034 67.9683 49.1264 67.9683 47.1878V42.5003C67.9683 40.5617 66.3912 38.9847 64.4528 38.9847C62.9248 38.9847 61.6214 39.9644 61.1377 41.3284H59.5261C59.2675 39.4302 58.8002 37.5798 58.1305 35.7956C59.5267 36.1464 60.9677 36.3283 62.4219 36.3283C72.1144 36.3281 80 28.4425 80 18.75ZM14.9478 27.4647L11.6111 24.1278L10.7823 24.9566C10.563 25.1761 10.2686 25.2969 9.95375 25.2969C9.6389 25.2969 9.34468 25.1761 9.125 24.9564C8.90562 24.7369 8.78468 24.4427 8.78468 24.1278C8.78468 23.813 8.90546 23.5188 9.12515 23.2992L12.4395 19.9847C12.6591 19.7652 12.9534 19.6442 13.2683 19.6442C13.5833 19.6442 13.8773 19.765 14.097 19.9847C14.3164 20.2042 14.4373 20.4984 14.4373 20.8133C14.4373 21.1281 14.3166 21.4223 14.097 21.6419L13.2683 22.4706L16.6039 25.8063C16.0264 26.3341 15.4745 26.888 14.9478 27.4647ZM56.3575 65.5598L57.1862 64.7311C57.4056 64.5116 57.7 64.3908 58.0148 64.3908C58.3297 64.3908 58.6239 64.5116 58.8434 64.7311C59.063 64.9506 59.1839 65.245 59.1839 65.5597C59.1839 65.8745 59.0631 66.1688 58.8434 66.3883L55.5286 69.7031C55.3092 69.9227 55.015 70.0434 54.7 70.0434C54.3851 70.0434 54.0909 69.9227 53.8714 69.7031C53.6519 69.4836 53.5309 69.1894 53.5309 68.8745C53.5309 68.5597 53.6519 68.2655 53.8714 68.0459L54.7002 67.2172L51.3634 63.8805C51.9403 63.3537 52.493 62.8003 53.0206 62.2231L56.3575 65.5598ZM54.3942 31.7036H49.4684V26.7775L49.3048 26.5013C47.9197 24.1631 47.1875 21.4827 47.1875 18.75C47.1875 10.3497 54.0216 3.51562 62.4219 3.51562C70.8222 3.51562 77.6562 10.3497 77.6562 18.75C77.6562 27.1502 70.8222 33.9844 62.4219 33.9844C59.6897 33.9844 57.0092 33.2522 54.6705 31.8672L54.3942 31.7036Z" fill="black"/>
<path d="M23.4375 29.6097C20.2066 29.6097 17.5781 32.2381 17.5781 35.4691C17.5781 38.6999 20.2066 41.3285 23.4375 41.3285C26.6684 41.3285 29.2969 38.7 29.2969 35.4691C29.2969 32.2381 26.6684 29.6097 23.4375 29.6097ZM23.4375 38.9846C21.4991 38.9846 19.9219 37.4075 19.9219 35.4689C19.9219 33.5303 21.4991 31.9533 23.4375 31.9533C25.3759 31.9533 26.9531 33.5305 26.9531 35.4689C26.9531 37.4074 25.3759 38.9846 23.4375 38.9846Z" fill="black"/>
<path d="M45.7028 55.3906C48.9337 55.3906 51.5622 52.7622 51.5622 49.5312C51.5622 46.3003 48.9337 43.6719 45.7028 43.6719C42.4719 43.6719 39.8434 46.3003 39.8434 49.5312C39.8434 52.7622 42.4719 55.3906 45.7028 55.3906ZM45.7028 46.0156C47.6412 46.0156 49.2184 47.5928 49.2184 49.5312C49.2184 51.4698 47.6412 53.0469 45.7028 53.0469C43.7644 53.0469 42.1872 51.4698 42.1872 49.5312C42.1872 47.5928 43.7644 46.0156 45.7028 46.0156Z" fill="black"/>
<path d="M19.9217 53.0469C19.9217 57.5702 23.6017 61.25 28.1248 61.25C32.648 61.25 36.328 57.5702 36.328 53.0469C36.328 48.5236 32.648 44.8438 28.1248 44.8438C23.6017 44.8438 19.9217 48.5238 19.9217 53.0469ZM33.9842 53.0469C33.9842 56.2778 31.3558 58.9062 28.1248 58.9062C24.8939 58.9062 22.2655 56.2778 22.2655 53.0469C22.2655 49.8159 24.8939 47.1875 28.1248 47.1875C31.3558 47.1875 33.9842 49.8161 33.9842 53.0469Z" fill="black"/>
<path d="M37.4998 31.9533C34.9152 31.9533 32.8123 34.0561 32.8123 36.6408C32.8123 39.2255 34.9152 41.3283 37.4998 41.3283C40.0845 41.3283 42.1873 39.2255 42.1873 36.6408C42.1873 34.0561 40.0845 31.9533 37.4998 31.9533ZM37.4998 38.9846C36.2075 38.9846 35.1561 37.9332 35.1561 36.6408C35.1561 35.3485 36.2075 34.2971 37.4998 34.2971C38.7922 34.2971 39.8436 35.3485 39.8436 36.6408C39.8436 37.9332 38.7923 38.9846 37.4998 38.9846Z" fill="black"/>
</g>
<defs>
<clipPath id="clip0">
<rect width="80" height="80" fill="white"/>
</clipPath>
</defs>
</svg>
