<svg width="80" height="80" viewBox="0 0 80 80" fill="none" xmlns="http://www.w3.org/2000/svg">
<g clip-path="url(#clip0)">
<path fill-rule="evenodd" clip-rule="evenodd" d="M4.68813 51.4616C4.68813 58.9347 4.3561 78.828 14.0631 78.828C21.5864 78.828 22.3052 72.0266 27.2105 68.5025C31.0836 65.72 37.9473 65.9388 41.273 63.0514C46.3705 58.6253 46.7978 45.4728 39.2563 39.9189C36.8555 38.13 33.9044 37.3992 30.9464 37.3992H18.7506C11.0161 37.3991 4.68813 43.7272 4.68813 51.4616Z" fill="#EAB8D5"/>
<path fill-rule="evenodd" clip-rule="evenodd" d="M39.2563 39.9188C46.7978 45.4727 46.3705 58.6252 41.273 63.0513C44.087 64.7736 48.8947 64.4867 51.0739 62.0277C48.7238 60.2139 48.3122 40.6611 51.5628 40.2317C47.995 38.2764 42.8595 38.8169 39.2563 39.9188Z" fill="#FBF2E2"/>
<path fill-rule="evenodd" clip-rule="evenodd" d="M51.5628 40.2317C48.3122 40.6611 48.7237 60.2139 51.0739 62.0277C53.1619 63.6389 57.6803 61.6816 61.8803 58.3409C68.8856 52.7687 73.6169 39.5055 67.5244 39.7942C61.4316 40.083 55.5027 39.7114 51.5628 40.2317Z" fill="#EAB8D5"/>
<path fill-rule="evenodd" clip-rule="evenodd" d="M41.2728 76.4842V63.0513C40.1466 64.0292 38.4562 64.6681 36.5853 65.2138V76.4842C36.5853 77.7786 37.6345 78.828 38.9291 78.828C40.2234 78.828 41.2728 77.7788 41.2728 76.4842ZM34.5619 37.792C36.378 38.2109 37.9347 38.9469 39.2494 39.9141V32.4905C39.2494 27.3349 35.0306 23.1155 29.8744 23.1155H27.5306C26.2362 23.1155 25.1869 24.1649 25.1869 25.4592C25.1869 26.7536 26.2361 27.803 27.5306 27.803H29.8744C32.4433 27.803 34.5619 29.9216 34.5619 32.4905V37.792Z" fill="#EAB8D5"/>
<path fill-rule="evenodd" clip-rule="evenodd" d="M41.2728 67.2355V63.0512C40.1466 64.0292 38.4563 64.6681 36.5853 65.2137V68.8992C38.1914 68.4767 39.8055 67.9826 41.2728 67.2355ZM34.5619 34.2081C36.1933 34.5103 37.7736 35.0295 39.2494 35.7902V39.9141C37.9347 38.947 36.378 38.2109 34.5619 37.792V34.2081Z" fill="#DF95C0"/>
<path fill-rule="evenodd" clip-rule="evenodd" d="M44.7814 25.9266V31.7034H50.5584C53.0042 33.1519 55.858 33.9842 58.9069 33.9842C67.9689 33.9842 75.3131 26.64 75.3131 17.578C75.3131 8.51594 67.9689 1.17172 58.9069 1.17172C49.8448 1.17172 42.5006 8.51594 42.5006 17.578C42.5006 20.627 43.3328 23.4811 44.7814 25.9266ZM55.3912 25.7811V21.0936H50.7037V14.0623H55.3912V9.375H62.4225V14.0625H67.11V21.0938H62.4225V25.7813H55.3912V25.7811Z" fill="#A4D7F5"/>
<path fill-rule="evenodd" clip-rule="evenodd" d="M55.3913 21.0938V25.7811H62.4225V21.0938H67.11V14.0623H62.4225V9.375H55.3913V14.0623H50.7038V21.0938H55.3913Z" fill="#D15573"/>
<path fill-rule="evenodd" clip-rule="evenodd" d="M4.68813 51.4616C4.68813 58.9347 4.3561 78.828 14.0631 78.828C14.7881 78.828 15.4492 78.7642 16.0577 78.6469C7.90922 76.6583 8.20375 58.5205 8.20375 51.4614C8.20375 43.727 14.5319 37.3989 22.2663 37.3989H18.7506C11.0161 37.3991 4.68813 43.7272 4.68813 51.4616Z" fill="#DF95C0"/>
<path fill-rule="evenodd" clip-rule="evenodd" d="M51.5628 40.2317C48.3122 40.6611 48.7237 60.2139 51.0739 62.0276C51.988 62.7331 53.3681 62.7545 54.9834 62.2752C54.8442 62.2045 54.7125 62.1225 54.5895 62.0276C52.5202 60.4306 51.9544 44.1733 54.068 40.0184C53.1669 40.0636 52.3272 40.1308 51.5628 40.2317Z" fill="#DF95C0"/>
<path d="M65.5377 45.9142H63.1939V43.5705H65.5377V45.9142ZM60.8502 45.9142H58.5064V43.5705H60.8502V45.9142Z" fill="white"/>
<path fill-rule="evenodd" clip-rule="evenodd" d="M44.7814 25.9266V31.7034H48.297V25.9266C46.8484 23.4811 46.0162 20.627 46.0162 17.578C46.0162 9.10984 52.4295 2.1425 60.6647 1.26562C50.9805 0.234061 42.5006 7.79594 42.5006 17.578C42.5006 20.627 43.3328 23.4811 44.7814 25.9266Z" fill="#6E91EF"/>
<path d="M43.6095 32.8753H50.2434C52.8758 34.3684 55.8639 35.1561 58.9069 35.1561C68.5994 35.1561 76.485 27.2706 76.485 17.5781C76.485 7.88562 68.5995 0 58.9069 0C49.2142 0 41.3288 7.88562 41.3288 17.5781C41.3288 20.6216 42.1164 23.6097 43.6095 26.2417V32.8753ZM58.9069 2.34375C67.3072 2.34375 74.1412 9.17781 74.1412 17.5781C74.1412 25.9783 67.3072 32.8123 58.9069 32.8123C56.1747 32.8123 53.4941 32.0802 51.1556 30.6952L50.8794 30.5316H45.9533V25.6056L45.7897 25.3294C44.4047 22.9909 43.6725 20.3106 43.6725 17.5781C43.6725 9.17781 50.5067 2.34375 58.9069 2.34375Z" fill="black"/>
<path d="M54.2194 26.953H63.5944V22.2656H68.2819V12.8905H63.5944V8.20312H54.2194V12.8905H49.5319V22.2656H54.2194V26.953ZM51.8756 19.9219V15.2342H56.5631V10.5469H61.2506V15.2342H65.9381V19.9219H61.2506V24.6092H56.5631V19.9219H51.8756Z" fill="black"/>
<path d="M67.4686 38.6236C64.9092 38.7447 62.4091 38.7483 59.9914 38.7517C56.95 38.7559 54.0697 38.7605 51.7822 39.0244C50.0278 38.1502 47.8869 37.7228 45.403 37.757C43.8103 37.7781 42.0867 38.0013 40.4211 38.393V32.4903C40.4211 26.6747 35.6899 21.9435 29.8742 21.9435H27.5305C25.592 21.9435 24.015 23.5206 24.015 25.4591C24.015 27.3975 25.592 28.9747 27.5305 28.9747H29.8742C31.7799 28.9747 33.3899 30.5847 33.3899 32.4903V36.3892C32.6031 36.2825 31.7889 36.2272 30.9463 36.2272H18.7503C14.4636 36.2272 10.3452 38.065 7.45078 41.2695L9.19 42.8406C11.6409 40.1274 15.1255 38.5711 18.7505 38.5711H30.9464C38.6153 38.5711 41.6541 43.6403 42.7828 46.6622C44.8509 52.1984 43.8077 59.2986 40.5045 62.1666C39.1278 63.3617 36.4941 64.05 33.9467 64.7155C31.2633 65.4166 28.4884 66.1416 26.5267 67.5509C24.6133 68.9256 23.3316 70.6953 22.0919 72.4069C20.0517 75.2236 18.2898 77.6563 14.063 77.6563C12.6491 77.6563 11.4595 77.1533 10.4263 76.1188C5.83422 71.5208 5.85188 57.9697 5.85922 52.1831L5.85985 51.4619C5.85985 49.0084 6.56047 46.6178 7.88594 44.5483L5.91235 43.2842C4.34469 45.7317 3.5161 48.5595 3.5161 51.4619L3.51547 52.1802C3.50688 58.7722 3.48922 72.4895 8.76781 77.7752C10.2423 79.2516 12.0239 80.0002 14.063 80.0002C19.4863 80.0002 21.7758 76.8391 23.99 73.7819C25.12 72.2214 26.2888 70.608 27.8941 69.4545C29.5022 68.2992 32.0628 67.6302 34.5391 66.9833C34.8327 66.9066 35.1239 66.8303 35.4134 66.7536V76.4847C35.4134 78.4231 36.9905 80.0003 38.9289 80.0003C40.8674 80.0003 42.4445 78.4231 42.4445 76.4847V64.8523C43.4069 65.1575 44.4627 65.3188 45.5413 65.3188C45.8647 65.3188 46.1903 65.3044 46.5159 65.2752C48.4038 65.1058 50.0531 64.4713 51.2634 63.4666C51.8099 63.6811 52.3964 63.7689 52.9891 63.7689C54.0745 63.7688 55.1797 63.4767 56.0899 63.1414C58.0855 62.4064 60.34 61.0636 62.6099 59.2583C62.8931 59.0328 63.177 58.7916 63.4778 58.5205L61.9086 56.7794C61.6477 57.0147 61.3925 57.2316 61.1506 57.4241C56.5986 61.0448 53.0081 62.0167 51.8009 61.1089C51.5877 60.8823 50.9748 59.5019 50.6181 55.7473C50.3355 52.7748 50.3142 49.3317 50.5608 46.5373C50.8788 42.9331 51.5305 41.6305 51.7936 41.3839C53.9775 41.1044 56.9013 41.1003 59.9947 41.0959C62.4389 41.0925 64.9663 41.0889 67.5795 40.965C68.4564 40.9234 68.7408 41.2675 68.9045 41.6092C69.9531 43.7977 67.7589 50.3505 63.4616 55.2059L65.2166 56.7592C67.3509 54.3477 69.2294 51.2444 70.3699 48.2449C71.0827 46.3708 72.1145 42.8849 71.018 40.5966C70.3716 39.2463 69.1114 38.5452 67.4686 38.6236ZM38.0775 37.8197C37.3353 37.4424 36.5528 37.1338 35.7338 36.8902V32.4905C35.7338 29.2595 33.1053 26.6311 29.8744 26.6311H27.5306C26.8845 26.6311 26.3589 26.1055 26.3589 25.4592C26.3589 24.813 26.8845 24.2874 27.5306 24.2874H29.8744C34.3975 24.2874 38.0775 27.9674 38.0775 32.4905V37.8197ZM40.1009 76.4842C40.1009 77.1305 39.5753 77.6561 38.9291 77.6561C38.283 77.6561 37.7574 77.1305 37.7574 76.4842V66.0831C38.5919 65.817 39.3814 65.5234 40.1009 65.1763V76.4842ZM43.2438 62.6531C46.3161 58.7047 47.1366 51.6192 44.9784 45.842C44.2095 43.7839 43.0892 41.975 41.6922 40.5125C44.2267 40.0033 47.1124 39.8792 49.4953 40.6277C49.1503 41.2764 48.9672 41.9564 48.8736 42.3041C48.0361 45.4155 47.9397 50.3077 48.1289 53.8486C48.2775 56.6295 48.6466 59.9836 49.5378 61.8378C47.9531 62.9783 45.35 63.2989 43.2438 62.6531Z" fill="black"/>
</g>
<defs>
<clipPath id="clip0">
<rect width="80" height="80" fill="white"/>
</clipPath>
</defs>
</svg>
