<svg width="80" height="80" viewBox="0 0 80 80" fill="none" xmlns="http://www.w3.org/2000/svg">
<path fill-rule="evenodd" clip-rule="evenodd" d="M26.5234 8.20313L24.1797 5.85938H11.2891V64.7658H53.4766V50.5469C50.6455 50.5469 47.9955 49.7741 45.7244 48.4291H40.36V43.0648C39.015 40.7939 38.2422 38.1438 38.2422 35.3125C38.2422 26.8977 45.0617 20.0781 53.4766 20.0781V5.85938H40.5859L38.2422 8.20313H26.5234Z" fill="#A4D7F5"/>
<path fill-rule="evenodd" clip-rule="evenodd" d="M53.4774 64.7658H11.2899V74.1406C11.2899 76.7188 13.3996 78.8281 15.9774 78.8281H48.7899C51.3677 78.8281 53.4774 76.7183 53.4774 74.1406V64.7658ZM24.1805 5.85938L26.5243 8.20312H38.243L40.5868 5.85938H53.4774C53.4774 3.28172 51.368 1.17188 48.7899 1.17188H15.9774C13.3993 1.17188 11.2899 3.28125 11.2899 5.85938H24.1805ZM32.3837 69.4531C33.678 69.4531 34.7274 70.5025 34.7274 71.7969C34.7274 73.0912 33.678 74.1406 32.3837 74.1406C31.0893 74.1406 30.0399 73.0912 30.0399 71.7969C30.0399 70.5025 31.0893 69.4531 32.3837 69.4531Z" fill="#B0C5E0"/>
<path d="M32.3828 74.1406C33.6772 74.1406 34.7266 73.0913 34.7266 71.7969C34.7266 70.5025 33.6772 69.4531 32.3828 69.4531C31.0884 69.4531 30.0391 70.5025 30.0391 71.7969C30.0391 73.0913 31.0884 74.1406 32.3828 74.1406Z" fill="#7094C6"/>
<path fill-rule="evenodd" clip-rule="evenodd" d="M40.3602 48.4291H45.7245C47.9956 49.7741 50.6455 50.5469 53.4767 50.5469C61.8914 50.5469 68.7111 43.7273 68.7111 35.3125C68.7111 26.8977 61.8916 20.0781 53.4767 20.0781C45.0619 20.0781 38.2423 26.8977 38.2423 35.3125C38.2423 38.1437 39.0152 40.7939 40.3602 43.0647V48.4291ZM51.1328 41.1719V37.6562H47.6172V32.9688H51.1328V29.4531H55.8203V32.9688H59.3359V37.6562H55.8203V41.1719H51.1328Z" fill="#FAEF93"/>
<path fill-rule="evenodd" clip-rule="evenodd" d="M51.1328 41.1719H55.8203V37.6562H59.3359V32.9688H55.8203V29.4531H51.1328V32.9688H47.6172V37.6562H51.1328V41.1719Z" fill="#D15573"/>
<path fill-rule="evenodd" clip-rule="evenodd" d="M11.2891 5.85938V64.7658H14.8047V5.85938H11.2891ZM53.4766 54.0625V50.5469C50.6455 50.5469 47.9955 49.7741 45.7244 48.4291H40.36V43.0648C39.015 40.7939 38.2422 38.1438 38.2422 35.3125C38.2422 26.8977 45.0617 20.0781 53.4766 20.0781V16.5625C43.1216 16.5625 34.7266 24.9573 34.7266 35.3125C34.7266 38.3398 35.4502 41.3022 36.8445 43.9745V51.9447H44.8148C47.4872 53.3388 50.4492 54.0625 53.4766 54.0625Z" fill="#6E91EF"/>
<path fill-rule="evenodd" clip-rule="evenodd" d="M19.492 1.17188H15.9764C13.3983 1.17188 11.2889 3.28125 11.2889 5.85938H14.8045C14.8047 3.28125 16.9141 1.17188 19.492 1.17188ZM14.8047 64.7658H11.2891V74.1406C11.2891 76.7188 13.3988 78.8281 15.9766 78.8281H19.4922C16.9144 78.8281 14.8047 76.7188 14.8047 74.1406V64.7658Z" fill="#7094C6"/>
<path d="M49.9611 16.4062H47.6173V14.0625H49.9611V16.4062ZM49.9611 11.7188H47.6173V9.375H49.9611V11.7188Z" fill="white"/>
<path fill-rule="evenodd" clip-rule="evenodd" d="M40.3602 48.429H43.8758V43.0648C42.5306 40.7939 41.7578 38.1437 41.7578 35.3125C41.7578 27.4923 47.648 21.0511 55.2344 20.1797C46.2022 19.1422 38.2422 26.1758 38.2422 35.3125C38.2422 38.1437 39.015 40.7939 40.36 43.0647V48.429H40.3602Z" fill="#EFC17A"/>
<path d="M32.3828 68.2812C30.4442 68.2812 28.8672 69.8584 28.8672 71.7969C28.8672 73.7353 30.4442 75.3125 32.3828 75.3125C34.3214 75.3125 35.8984 73.7353 35.8984 71.7969C35.8984 69.8584 34.3214 68.2812 32.3828 68.2812ZM32.3828 72.9688C31.7366 72.9688 31.2109 72.4431 31.2109 71.7969C31.2109 71.1506 31.7366 70.625 32.3828 70.625C33.0291 70.625 33.5547 71.1506 33.5547 71.7969C33.5547 72.4431 33.0291 72.9688 32.3828 72.9688Z" fill="black"/>
<path d="M31.2109 77.6562H33.5547V80H31.2109V77.6562Z" fill="black"/>
<path d="M69.8828 35.3125C69.8828 26.6602 63.15 19.5516 54.6484 18.9486V5.85938C54.6484 2.62844 52.02 0 48.7891 0H15.9766C12.7456 0 10.1172 2.62844 10.1172 5.85938V10.5469H12.4609V7.03125H23.6944L26.0381 9.375H38.7277L41.0714 7.03125H52.3048V18.9486C43.8034 19.5516 37.0705 26.6602 37.0705 35.3125C37.0705 38.1458 37.8017 40.9275 39.1883 43.3794V49.6009H45.41C47.523 50.7956 49.8806 51.5023 52.3047 51.6755V63.5938H12.4609V12.8906H10.1172V74.1406C10.1172 77.3716 12.7456 80 15.9766 80H28.8672V77.6562H15.9766C14.038 77.6562 12.4609 76.0791 12.4609 74.1406V65.9377H52.3047V74.1406C52.3047 76.0791 50.7275 77.6562 48.7891 77.6562H35.8984V80H48.7891C52.02 80 54.6484 77.3716 54.6484 74.1406V51.6764C63.15 51.0734 69.8828 43.9648 69.8828 35.3125ZM40.1006 4.6875L37.7569 7.03125H27.0089L24.6652 4.6875H12.6625C13.1463 3.32359 14.4488 2.34375 15.9766 2.34375H48.7891C50.3167 2.34375 51.6194 3.32359 52.1031 4.6875H40.1006ZM53.4766 49.375C50.9545 49.375 48.4803 48.6992 46.3216 47.4208L46.0455 47.2572H41.5319V42.7438L41.3683 42.4675C40.0897 40.3092 39.4141 37.8352 39.4141 35.3125C39.4141 27.5584 45.7225 21.25 53.4766 21.25C61.2306 21.25 67.5391 27.5584 67.5391 35.3125C67.5391 43.0666 61.2306 49.375 53.4766 49.375Z" fill="black"/>
<path d="M18.197 42.9297H32.2595V45.2734H18.197V42.9297Z" fill="black"/>
<path d="M18.197 37.0703H32.2595V39.4141H18.197V37.0703Z" fill="black"/>
<path d="M18.197 31.2111H32.2595V33.5548H18.197V31.2111Z" fill="black"/>
<path d="M18.197 25.3517H32.2595V27.6955H18.197V25.3517Z" fill="black"/>
<path d="M56.9923 28.2812H49.9609V31.7969H46.4453V38.8281H49.9609V42.3438H56.9923V38.8281H60.5078V31.7969H56.9923V28.2812ZM58.1641 34.1406V36.4844H54.6486V40H52.3047V36.4844H48.7891V34.1406H52.3047V30.625H54.6486V34.1406H58.1641Z" fill="black"/>
</svg>
