<svg width="80" height="80" viewBox="0 0 80 80" fill="none" xmlns="http://www.w3.org/2000/svg">
<g clip-path="url(#clip0)">
<path d="M30.0491 39.4073C30.1074 32.496 33.6065 26.3911 38.9125 22.7223L34.9204 18.7302C28.6343 23.4492 24.5419 30.9396 24.4745 39.3714C24.3591 53.8206 36.3404 65.6436 50.7901 65.6436H60.3299L64.8251 65.4873C66.3645 65.4873 67.4563 64.3956 67.4563 62.8562C67.4563 61.3168 66.3645 60.2251 64.8251 60.2251L60.2707 60.0688H50.74C39.3763 60.0688 29.9533 50.7707 30.0491 39.4073Z" fill="#FFE07D"/>
<path d="M67.6127 62.8565C67.6127 64.3955 66.3643 65.644 64.8253 65.644H60.1378C61.6768 65.644 62.9253 64.3955 62.9253 62.8565C62.9253 62.0877 62.6128 61.3908 62.1081 60.8862C61.6034 60.3815 60.9065 60.069 60.1378 60.069H64.8253C65.594 60.069 66.2909 60.3815 66.7956 60.8862C67.3002 61.3908 67.6127 62.0877 67.6127 62.8565Z" fill="#FFD064"/>
<path d="M48.0573 73.2794V59.6526C48.0573 56.5394 45.5335 54.0158 42.4203 54.0158C39.973 54.0158 37.8053 55.595 37.055 57.9244L32.109 73.2796L40 76.0541L48.0573 73.2794Z" fill="#F3F0F3"/>
<path d="M42.4204 54.0158C41.8816 54.0158 41.3564 54.0925 40.8571 54.2367C43.2102 54.9141 44.9322 57.0816 44.9322 59.6527V74.3557L48.0573 73.2796V59.6527C48.0573 56.5394 45.5335 54.0158 42.4204 54.0158Z" fill="#E2DEE2"/>
<path d="M31.5518 16.5563L27.7661 20.4982L17.3249 10.057L21.2668 6.27133L31.5518 16.5563Z" fill="#F3F0F3"/>
<path d="M51.4573 40.0912C51.0908 40.4578 50.6476 40.857 50.1795 40.9769C49.2571 41.2127 48.2376 40.9695 47.5156 40.2475L38.8737 31.6057L42.8157 27.6638L51.3012 36.3056C52.3895 37.3942 52.5458 39.0028 51.4573 40.0912Z" fill="#556D76"/>
<path d="M67.1122 78.6723L62.4273 78.8286H12.888C11.3556 78.8286 10.1134 77.5864 10.1134 76.054C10.1134 74.5216 11.3556 73.2794 12.888 73.2794H62.5103L67.112 73.4357C68.6444 73.4357 69.7303 74.5216 69.7303 76.054C69.7305 77.5864 68.6444 78.6723 67.1122 78.6723Z" fill="#C3DDFF"/>
<path d="M69.8862 76.0535C69.8862 76.8192 69.5753 77.5129 69.0737 78.016C68.5721 78.5176 67.8784 78.8285 67.1128 78.8285H62.4253C63.1909 78.8285 63.8846 78.5176 64.3862 78.016C64.8878 77.5129 65.1987 76.8192 65.1987 76.0535C65.1987 74.5223 63.9565 73.2801 62.4253 73.2801H67.1128C68.644 73.2801 69.8862 74.5223 69.8862 76.0535Z" fill="#A4CCFF"/>
<path d="M19.2744 8.10553L21.2629 6.11707L31.7023 16.5565L29.7138 18.5449L19.2744 8.10553Z" fill="#E2DEE2"/>
<path d="M42.8156 27.6642L51.4567 36.3053C52.545 37.3936 52.545 39.1591 51.4567 40.2473C51.0944 40.6097 50.6556 40.8517 50.1917 40.9711C50.4359 40.0462 50.1939 39.0198 49.468 38.2941L40.8269 29.653L42.8156 27.6642Z" fill="#425A60"/>
<path d="M49.3823 32.481L46.2957 35.7239L43.6907 38.3287C42.7754 39.244 41.2914 39.244 40.3761 38.3287L23.4567 21.4093C22.5414 20.494 22.5414 19.0101 23.4567 18.0947L26.0422 15.5092L29.4607 12.2469C30.376 11.3315 31.7037 11.4878 32.619 12.4031L49.5384 29.3225C50.4539 30.2379 50.2976 31.5657 49.3823 32.481Z" fill="#C3DDFF"/>
<path d="M32.6188 12.248L49.5376 29.1668C50.4536 30.0827 50.4536 31.5654 49.5376 32.4813L46.223 35.7959C47.139 34.88 47.139 33.3973 46.223 32.4813L29.3043 15.5625C28.3883 14.6466 26.9056 14.6466 25.9897 15.5625L29.3043 12.248C30.2202 11.332 31.7029 11.332 32.6188 12.248Z" fill="#A4CCFF"/>
<path d="M24.1352 5.02438L20.9918 8.32407L16.2341 13.0817C15.9289 13.3869 15.4344 13.3869 15.1293 13.0817L12.61 10.5625C12.3049 10.2573 12.3049 9.76282 12.61 9.45766L17.3663 4.70141L20.8238 1.40016C21.1289 1.095 21.4672 1.25125 21.7724 1.55641L24.2916 4.07563C24.5966 4.38079 24.4403 4.71922 24.1352 5.02438Z" fill="#C3DDFF"/>
<path d="M21.7713 1.40032L24.2914 3.92047C24.5964 4.22547 24.5975 4.71922 24.2914 5.02532L20.9767 8.34001C21.2828 8.03391 21.2817 7.54016 20.9767 7.23516L18.4566 4.71501C18.1516 4.41001 17.6578 4.40891 17.3517 4.71501L20.6663 1.40048C20.9724 1.09438 21.4663 1.09547 21.7713 1.40032Z" fill="#A4CCFF"/>
<path d="M36.4631 29.2807C36.4631 32.8384 33.7353 35.5662 30.1776 35.5662C29.3509 35.5662 28.5604 35.5667 27.8342 35.2829C25.4353 34.3456 23.7359 32.0117 23.7359 29.2807C23.7359 26.5498 25.4353 24.2159 27.8342 23.2786C28.5604 22.9948 29.3509 22.9953 30.1776 22.9953C33.7353 22.9953 36.4631 25.7231 36.4631 29.2807Z" fill="#F3F0F3"/>
<path d="M36.6186 29.2811C36.6186 32.8389 33.7358 35.7217 30.178 35.7217C29.3514 35.7217 28.5608 35.5654 27.8342 35.2811C30.2327 34.3451 31.9311 32.0107 31.9311 29.2811C31.9311 26.5514 30.2327 24.217 27.8342 23.2795C28.5608 22.9951 29.3514 22.8389 30.178 22.8389C33.7358 22.8389 36.6186 25.7232 36.6186 29.2811Z" fill="#E2DEE2"/>
<path d="M42.862 37.4996C42.6407 37.7211 42.3463 37.8429 42.0334 37.8429C41.7204 37.8429 41.426 37.7211 41.2048 37.4996L36.7761 33.0712C37.4205 31.954 37.7911 30.66 37.7911 29.2803C37.7911 25.0822 34.3756 21.6666 30.1774 21.6666C28.7977 21.6666 27.5038 22.0374 26.3868 22.6817L24.2852 20.5801C24.0638 20.3588 23.9419 20.0646 23.9419 19.7515C23.9419 19.4385 24.0638 19.1441 24.2852 18.9229L30.1331 13.0751C30.3545 12.8537 30.6487 12.7319 30.9617 12.7319C31.2746 12.7319 31.569 12.8537 31.7904 13.0751L41.9068 23.1917C42.3644 23.6493 43.1063 23.6493 43.5642 23.1917C44.0218 22.734 44.0218 21.992 43.5642 21.5345L33.4476 11.4179C32.7836 10.7539 31.9007 10.3882 30.9617 10.3882C30.0226 10.3882 29.1398 10.7539 28.4757 11.4179L28.3513 11.5423L23.891 7.08194L25.1202 5.85271C25.8818 5.09114 25.8818 3.85206 25.1202 3.09065L22.6011 0.571087C21.8395 -0.190484 20.6004 -0.190484 19.8389 0.571087L11.7813 8.62868C11.0197 9.3901 11.0197 10.6293 11.7813 11.3907L14.3005 13.91C14.6813 14.2908 15.1815 14.4811 15.6816 14.4811C16.1818 14.4811 16.682 14.2908 17.0628 13.91L18.2918 12.6809L22.7522 17.1413L22.628 17.2655C21.9639 17.9296 21.5983 18.8124 21.5983 19.7515C21.5983 20.6905 21.9641 21.5735 22.628 22.2374L24.5491 24.1586C23.3164 25.512 22.5639 27.3098 22.5639 29.2803C22.5639 30.9086 23.0794 32.418 23.9535 33.6573C23.5383 35.5223 23.3178 37.4381 23.3025 39.3615C23.2808 42.0811 23.6695 44.7735 24.4582 47.3634C24.6121 47.8688 25.0764 48.1943 25.5788 48.1943C25.6919 48.1943 25.8068 48.1779 25.9205 48.1432C26.5397 47.9546 26.8888 47.3001 26.7004 46.6808C25.9811 44.3183 25.6264 41.862 25.6463 39.3801C25.6563 38.117 25.7638 36.8579 25.9632 35.6171C26.8749 36.2256 27.9244 36.6426 29.0545 36.8104C28.9448 37.6665 28.8846 38.532 28.8773 39.3969C28.848 42.8563 29.6315 46.1749 31.2057 49.261C32.5251 51.8473 34.387 54.1811 36.6275 56.07C36.3438 56.5308 36.1113 57.0311 35.9394 57.5646L35.4097 59.209C32.6025 57.0422 30.262 54.3003 28.589 51.2026C28.2815 50.6332 27.5704 50.4207 27.001 50.7284C26.4315 51.036 26.2193 51.747 26.5268 52.3164C28.4873 55.9463 31.2851 59.1285 34.65 61.5673L31.2551 72.1069H12.8352C10.6881 72.1069 8.94141 73.8537 8.94141 76.0006V76.106C8.94141 78.2531 10.6881 79.9998 12.8352 79.9998H56.6441C57.2915 79.9998 57.816 79.4751 57.816 78.8279C57.816 78.1807 57.2915 77.6561 56.6441 77.6561H12.8352C11.9805 77.6561 11.2852 76.9607 11.2852 76.106V76.0009C11.2852 75.1462 11.9805 74.451 12.8352 74.451H67.1647C68.0194 74.451 68.7148 75.1463 68.7148 76.0009V76.1063C68.7148 76.961 68.0194 77.6564 67.1647 77.6564H61.7506C61.1033 77.6564 60.5787 78.1811 60.5787 78.8283C60.5787 79.4754 61.1033 80.0001 61.7506 80.0001H67.1647C69.3118 80.0001 71.0585 78.2534 71.0585 76.1063V76.0009C71.0585 73.8538 69.3118 72.1072 67.1647 72.1072H49.2291V66.8151H64.8252C67.0083 66.8151 68.7844 65.039 68.7844 62.8559C68.7844 60.6727 67.0083 58.8966 64.8252 58.8966H60.3295V55.9849H64.8252C65.4725 55.9849 65.9971 55.4602 65.9971 54.813C65.9971 54.1658 65.4725 53.6411 64.8252 53.6411H53.4902C52.843 53.6411 52.3183 54.1658 52.3183 54.813C52.3183 55.4602 52.843 55.9849 53.4902 55.9849H57.9857V58.8966H50.74C50.2197 58.8966 49.6973 58.8732 49.1778 58.8315C48.7711 55.4628 45.8967 52.8434 42.4204 52.8434C40.8377 52.8434 39.3585 53.3836 38.1842 54.3161C33.7603 50.609 31.1729 45.1108 31.2209 39.4169C31.2284 38.5376 31.2957 37.6578 31.4215 36.7909C32.9001 36.5468 34.237 35.8767 35.2994 34.909L39.5474 39.157C40.2115 39.8211 41.0943 40.1867 42.0334 40.1867C42.9724 40.1867 43.8552 39.8209 44.5193 39.157L44.6435 39.0328L46.6865 41.0758C47.4343 41.8236 48.4287 42.2355 49.4863 42.2355C50.5439 42.2355 51.5382 41.8236 52.2857 41.0759C53.0335 40.3281 53.4454 39.3339 53.4454 38.2764C53.4454 37.2189 53.0335 36.2246 52.2858 35.4768L50.2428 33.4338L50.3672 33.3094C51.7378 31.9386 51.7377 29.7083 50.3672 28.3377L47.1786 25.149C46.7208 24.6914 45.9789 24.6914 45.5212 25.149C45.0635 25.6067 45.0635 26.3487 45.5212 26.8062L48.7098 29.9949C49.1669 30.4517 49.1669 31.1952 48.7098 31.6522L42.862 37.4996ZM50.6286 37.1339C50.9336 37.439 51.1016 37.8445 51.1016 38.2761C51.1016 38.7075 50.9336 39.1131 50.6285 39.4184C50.3235 39.7236 49.9178 39.8915 49.4863 39.8915C49.0547 39.8915 48.6491 39.7234 48.3439 39.4184L46.3007 37.3753L48.5853 35.0909L50.6286 37.1339ZM15.6816 11.9767L13.7149 10.0098L21.22 2.5047L23.1867 4.4716L15.6816 11.9767ZM19.9492 11.0237L22.2337 8.73915L26.6941 13.1995L24.4096 15.4841L19.9492 11.0237ZM24.9077 29.2803C24.9077 26.3745 27.2718 24.0104 30.1776 24.0104C33.0834 24.0104 35.4475 26.3745 35.4475 29.2803C35.4475 32.1861 33.0834 34.5502 30.1776 34.5502C27.2718 34.5502 24.9077 32.1861 24.9077 29.2803ZM49.2291 64.4712V61.2402H64.8252C65.716 61.2402 66.4407 61.9649 66.4407 62.8557C66.4407 63.7465 65.716 64.4712 64.8252 64.4712H49.2291ZM46.8853 72.1071H33.7175L38.1703 58.2832C38.7668 56.4313 40.4747 55.1872 42.4204 55.1872C44.8825 55.1872 46.8853 57.1902 46.8853 59.6522V72.1071Z" fill="black"/>
<path d="M42.55 58.298C41.9028 58.298 41.3781 58.8227 41.3781 59.4699C41.3781 60.1171 41.9028 60.6418 42.55 60.6418C43.1972 60.6418 43.7219 60.1171 43.7219 59.4699C43.7219 58.8227 43.1972 58.298 42.55 58.298Z" fill="black"/>
<path d="M31.3488 29.2795C31.3488 28.6324 30.8241 28.1077 30.1769 28.1077C29.5297 28.1077 29.005 28.6324 29.005 29.2795C29.005 29.9267 29.5297 30.4514 30.1769 30.4514C30.8241 30.4514 31.3488 29.9267 31.3488 29.2795Z" fill="black"/>
</g>
<defs>
<clipPath id="clip0">
<rect width="80" height="80" fill="white"/>
</clipPath>
</defs>
</svg>
