<svg width="0" height="0" class="hidden">
  <symbol fill="none" xmlns="http://www.w3.org/2000/svg" viewBox="0 0 24 24" id="instagram">
    <path d="M17.5034 0H6.49657C2.9143 0 0 2.9143 0 6.49657V17.5036C0 21.0857 2.9143 24 6.49657 24H17.5036C21.0857 24 24 21.0857 24 17.5036V6.49657C24 2.9143 21.0857 0 17.5034 0V0ZM12 18.5623C8.38145 18.5623 5.43767 15.6185 5.43767 12C5.43767 8.38145 8.38145 5.43767 12 5.43767C15.6185 5.43767 18.5623 8.38145 18.5623 12C18.5623 15.6185 15.6185 18.5623 12 18.5623ZM18.7192 6.98528C17.6499 6.98528 16.7801 6.11553 16.7801 5.04619C16.7801 3.97686 17.6499 3.10693 18.7192 3.10693C19.7885 3.10693 20.6585 3.97686 20.6585 5.04619C20.6585 6.11553 19.7885 6.98528 18.7192 6.98528Z" fill="black"></path>
    <path d="M12 6.8446C9.15744 6.8446 6.84464 9.15722 6.84464 11.9999C6.84464 14.8425 9.15744 17.1553 12 17.1553C14.8427 17.1553 17.1553 14.8425 17.1553 11.9999C17.1553 9.15722 14.8427 6.8446 12 6.8446Z" fill="black"></path>
    <path d="M18.7192 4.51404C18.4259 4.51404 18.1871 4.75281 18.1871 5.04614C18.1871 5.33948 18.4259 5.57825 18.7192 5.57825C19.0127 5.57825 19.2515 5.33966 19.2515 5.04614C19.2515 4.75262 19.0127 4.51404 18.7192 4.51404Z" fill="black"></path>
  </symbol>
  <symbol fill="none" xmlns="http://www.w3.org/2000/svg" viewBox="0 0 24 24" id="facebook">
    <path d="M20.4844 0H3.51562C1.57727 0 0 1.57727 0 3.51562V20.4844C0 22.4227 1.57727 24 3.51562 24H10.5938V15.5156H7.78125V11.2969H10.5938V8.4375C10.5938 6.11115 12.4861 4.21875 14.8125 4.21875H19.0781V8.4375H14.8125V11.2969H19.0781L18.375 15.5156H14.8125V24H20.4844C22.4227 24 24 22.4227 24 20.4844V3.51562C24 1.57727 22.4227 0 20.4844 0Z" fill="black"></path>
  </symbol>
  <symbol fill="none" xmlns="http://www.w3.org/2000/svg" viewBox="0 0 24 20" id="telegram">
    <path d="M9.417 13.181L9.02 18.765C9.588 18.765 9.83399 18.521 10.129 18.228L12.792 15.683L18.31 19.724C19.322 20.288 20.035 19.991 20.308 18.793L23.93 1.82104L23.931 1.82004C24.252 0.324039 23.39 -0.260961 22.404 0.106039L1.11399 8.25704C-0.339005 8.82104 -0.317005 9.63104 0.866995 9.99804L6.30999 11.691L18.953 3.78004C19.548 3.38604 20.089 3.60404 19.644 3.99804L9.417 13.181Z" fill="black"></path>
  </symbol>
</svg>