<svg width="80" height="80" viewBox="0 0 80 80" fill="none" xmlns="http://www.w3.org/2000/svg">
<path fill-rule="evenodd" clip-rule="evenodd" d="M14.0625 44.6877V36.708C15.3142 35.9797 16.3239 34.8767 16.9347 33.5552C15.8186 31.1398 13.3705 29.4533 10.547 29.4533H8.20312C5.37984 29.4533 2.93171 31.1398 1.81531 33.5552C2.42625 34.8766 3.43593 35.9797 4.68749 36.708V44.6877C4.68749 45.9763 5.74218 47.0314 7.03124 47.0314H11.7187C13.0078 47.0313 14.0625 45.9767 14.0625 44.6877Z" fill="#F8FAFC"/>
<path fill-rule="evenodd" clip-rule="evenodd" d="M1.81531 33.5551C2.93156 31.1398 5.37969 29.4533 8.20312 29.4533H10.547C13.3703 29.4533 15.8184 31.1398 16.9347 33.5551C17.3475 32.662 17.5781 31.6694 17.5781 30.6253C17.5781 26.7581 14.4142 23.5941 10.5469 23.5941H8.20312C4.33594 23.5941 1.17188 26.7581 1.17188 30.6253C1.17188 31.6694 1.4025 32.6622 1.81531 33.5551Z" fill="#B0C5E0"/>
<path fill-rule="evenodd" clip-rule="evenodd" d="M11.7188 47.0312H7.03125V49.375C7.03125 50.6641 8.08594 51.7188 9.375 51.7188C10.6641 51.7188 11.7188 50.6641 11.7188 49.375V47.0312Z" fill="#7094C6"/>
<path fill-rule="evenodd" clip-rule="evenodd" d="M22.5781 7.1875V49.375C22.5781 50.6641 23.6325 51.7188 24.9206 51.7188H76.4855C77.7736 51.7188 78.828 50.6637 78.828 49.375V7.1875C78.828 5.89875 77.7739 4.84375 76.4855 4.84375H24.9206C23.6322 4.84391 22.5781 5.89859 22.5781 7.1875ZM74.1406 47.0314H27.2656V9.53141H74.1406V47.0314Z" fill="#F8FAFC"/>
<path fill-rule="evenodd" clip-rule="evenodd" d="M27.2656 9.5314V47.0314H74.1406V9.5314H27.2656ZM50.7031 37.9644C43.8384 37.9644 37.6236 35.1819 33.125 30.6833L45.21 18.5983C46.6158 20.0041 48.558 20.8736 50.7031 20.8736C52.8483 20.8736 54.7905 20.0041 56.1963 18.5983L68.2812 30.6833C63.7827 35.1819 57.5678 37.9644 50.7031 37.9644Z" fill="#A4D7F5"/>
<path fill-rule="evenodd" clip-rule="evenodd" d="M45.21 18.5983L33.125 30.6833C37.6236 35.182 43.8384 37.9644 50.7031 37.9644C57.5678 37.9644 63.7827 35.1819 68.2812 30.6833L56.1963 18.5983C54.7905 20.004 52.8483 20.8736 50.7031 20.8736C48.558 20.8737 46.6158 20.004 45.21 18.5983ZM48.3594 32.9689C46.4178 32.9689 44.8438 31.3948 44.8438 29.4533C44.8438 27.5117 46.4178 25.9376 48.3594 25.9376C49.8902 25.9376 51.192 26.9161 51.6747 28.2814H54.2189C55.5081 28.2814 56.5625 29.3361 56.5625 30.6251C56.5625 31.9142 55.5078 32.9687 54.2189 32.9687H48.3594V32.9689Z" fill="#FAEF93"/>
<path fill-rule="evenodd" clip-rule="evenodd" d="M48.3594 25.9377C46.4178 25.9377 44.8438 27.5117 44.8438 29.4533C44.8438 31.3948 46.4178 32.9689 48.3594 32.9689H54.2189C55.508 32.9689 56.5625 31.9142 56.5625 30.6253C56.5625 29.3362 55.508 28.2816 54.2189 28.2816H51.6747C51.192 26.9159 49.89 25.9377 48.3594 25.9377Z" fill="#EFC17A"/>
<path fill-rule="evenodd" clip-rule="evenodd" d="M54.2191 51.7189H47.1872C47.1872 56.8752 42.9684 61.0939 37.8123 61.0939H63.5941C58.4377 61.0937 54.2191 56.8752 54.2191 51.7189Z" fill="#D6E1EF"/>
<path fill-rule="evenodd" clip-rule="evenodd" d="M29.6092 61.0938C28.322 61.0938 27.2655 62.1503 27.2655 63.4375V75.1561H74.1405V63.4375C74.1405 62.1484 73.0839 61.0938 71.7967 61.0938H29.6092ZM58.9061 65.7813H65.9373C67.2264 65.7813 68.2811 66.8359 68.2811 68.125C68.2811 69.4141 67.2264 70.4688 65.9373 70.4688H58.9061V65.7813ZM35.4689 65.7813H42.5V70.4688H35.4689C34.18 70.4688 33.1252 69.4141 33.1252 68.125C33.1252 66.8359 34.1798 65.7813 35.4689 65.7813ZM48.3594 68.125C48.3594 66.8306 49.4086 65.7813 50.7031 65.7813C51.9975 65.7813 53.0469 66.8306 53.0469 68.125C53.0469 69.4194 51.9975 70.4688 50.7031 70.4688C49.4086 70.4688 48.3594 69.4194 48.3594 68.125Z" fill="#F8FAFC"/>
<path fill-rule="evenodd" clip-rule="evenodd" d="M42.5 70.4688V65.7812H35.4689C34.1798 65.7812 33.1252 66.8359 33.1252 68.125C33.1252 69.4141 34.1798 70.4688 35.4689 70.4688H42.5ZM58.9061 70.4688V65.7812H65.9373C67.2264 65.7812 68.2811 66.8359 68.2811 68.125C68.2811 69.4141 67.2264 70.4688 65.9373 70.4688H58.9061Z" fill="#FAEF93"/>
<path d="M50.7031 70.4688C51.9975 70.4688 53.0469 69.4194 53.0469 68.125C53.0469 66.8306 51.9975 65.7812 50.7031 65.7812C49.4087 65.7812 48.3594 66.8306 48.3594 68.125C48.3594 69.4194 49.4087 70.4688 50.7031 70.4688Z" fill="#B0C5E0"/>
<path fill-rule="evenodd" clip-rule="evenodd" d="M4.69155 30.3995C3.43812 31.1278 2.42687 32.2322 1.81546 33.5553C2.4264 34.8767 3.43609 35.9798 4.68765 36.7081V44.6878C4.68765 45.9764 5.74234 47.0316 7.0314 47.0316H10.547C9.25796 47.0316 8.20327 45.9764 8.20327 44.6878V35.1456C6.62827 34.4289 4.6089 32.9913 4.69155 30.3995Z" fill="#D6E1EF"/>
<path fill-rule="evenodd" clip-rule="evenodd" d="M1.81531 33.5552C2.42687 32.232 3.43797 31.1276 4.69141 30.3994C4.80547 26.8314 7.61109 23.9128 11.1328 23.6187C10.9395 23.6027 10.7442 23.5939 10.547 23.5939H8.20312C4.33594 23.5939 1.17188 26.758 1.17188 30.6252C1.17188 31.6694 1.4025 32.6622 1.81531 33.5552Z" fill="#7094C6"/>
<path fill-rule="evenodd" clip-rule="evenodd" d="M22.5781 7.1875V49.375C22.5781 50.6641 23.6325 51.7188 24.9206 51.7188H28.4363C27.1481 51.7188 26.0938 50.6641 26.0938 49.375V7.1875C26.0938 5.89844 27.1478 4.84375 28.4363 4.84375H24.9206C23.6322 4.84391 22.5781 5.89859 22.5781 7.1875Z" fill="#D6E1EF"/>
<path fill-rule="evenodd" clip-rule="evenodd" d="M27.2656 9.5314H30.7812V47.0314H27.2656V9.5314Z" fill="#6E91EF"/>
<path fill-rule="evenodd" clip-rule="evenodd" d="M29.6092 61.0938C28.322 61.0938 27.2655 62.1503 27.2655 63.4375V75.1561H30.7811V63.4375C30.7811 62.1503 31.8377 61.0938 33.1248 61.0938H29.6092Z" fill="#D6E1EF"/>
<path fill-rule="evenodd" clip-rule="evenodd" d="M38.9845 65.7812H35.4689C34.1798 65.7812 33.1252 66.8359 33.1252 68.125C33.1252 69.4141 34.1798 70.4688 35.4689 70.4688H38.9845C37.6956 70.4688 36.6408 69.4141 36.6408 68.125C36.6408 66.8359 37.6955 65.7812 38.9845 65.7812ZM58.9061 70.4688V65.7812H62.4217V70.4688H58.9061Z" fill="#EFC17A"/>
<path d="M70.625 20.0783H68.2812V17.7345H70.625V20.0783ZM70.625 15.3906H68.2812V13.0469H70.625V15.3906Z" fill="white"/>
<path d="M76.4856 3.67203H24.9206C22.9828 3.67203 21.4062 5.24922 21.4062 7.18765V11.875H23.75V7.18765C23.75 6.5414 24.2752 6.01578 24.9206 6.01578H76.4856C77.1311 6.01578 77.6562 6.5414 77.6562 7.18765V49.3752C77.6562 50.0214 77.1311 50.547 76.4856 50.547H24.9206C24.2752 50.547 23.75 50.0214 23.75 49.3752V14.2187H21.4062V49.3752C21.4062 51.3136 22.9828 52.8908 24.9206 52.8908H45.9302C45.3597 56.8606 41.9375 59.9219 37.8122 59.9219H29.6094C27.6708 59.9219 26.0938 61.4991 26.0938 63.4375V68.125H18.75C14.2269 68.125 10.5469 64.445 10.5469 59.9219V52.6892C11.9108 52.2055 12.8906 50.9028 12.8906 49.375V48.0016C14.2545 47.5178 15.2344 46.2153 15.2344 44.6877V37.3483C17.4188 35.8181 18.75 33.3013 18.75 30.6253C18.75 26.1022 15.0702 22.4222 10.5469 22.4222H8.20312C3.67984 22.4222 0 26.1022 0 30.6253C0 33.3013 1.33141 35.8183 3.51578 37.3483V44.6877C3.51578 46.2153 4.49547 47.5178 5.85953 48.0016V49.375C5.85953 50.9028 6.83938 52.2055 8.20328 52.6892V59.9219C8.20328 65.7375 12.9345 70.4688 18.7502 70.4688H26.0939V76.328H61.25V73.9842H28.4375V63.4375C28.4375 62.8023 28.9742 62.2656 29.6094 62.2656H71.7969C72.443 62.2656 72.9688 62.7913 72.9688 63.4375V73.9842H68.2812V76.328H75.3125V63.4375C75.3125 61.4991 73.7355 59.9219 71.7969 59.9219H63.5939C59.4688 59.9219 56.0464 56.8606 55.4759 52.8908H76.4856C78.4234 52.8908 80 51.3136 80 49.3752V7.18765C80 5.24922 78.4234 3.67203 76.4856 3.67203ZM8.20312 48.2031H10.5469V49.375C10.5469 50.0212 10.0212 50.547 9.375 50.547C8.72875 50.547 8.20312 50.0212 8.20312 49.375V48.2031ZM8.20312 24.7659H10.547C13.7778 24.7659 16.4064 27.3944 16.4064 30.6253C16.4064 30.6686 16.403 30.7114 16.402 30.7547C14.8808 29.2039 12.778 28.2814 10.547 28.2814H8.20312C5.97219 28.2814 3.86937 29.2038 2.34812 30.7547C2.34719 30.7116 2.34375 30.6686 2.34375 30.6253C2.34375 27.3944 4.97219 24.7659 8.20312 24.7659ZM3.13906 33.5548C4.18469 31.7598 6.11516 30.6252 8.20312 30.6252H10.547C12.635 30.6252 14.5653 31.7598 15.6111 33.5548C15.1042 34.4262 14.3737 35.1709 13.4733 35.6948L12.8906 36.0339V44.6877C12.8906 45.3338 12.365 45.8594 11.7188 45.8594H7.03125C6.38516 45.8594 5.85938 45.3338 5.85938 44.6877V36.0339L5.27672 35.6948C4.37625 35.1711 3.64594 34.4264 3.13906 33.5548ZM56.9752 59.9219H44.4311C46.5381 58.2184 47.9777 55.7225 48.2923 52.8908H53.1139C53.4284 55.7225 54.8681 58.2184 56.9752 59.9219Z" fill="black"/>
<path d="M26.0938 8.35953V48.2033H75.3125V8.35953H26.0938ZM72.9688 45.8595H28.4375V10.7033H72.9688V45.8595Z" fill="black"/>
<path d="M63.5938 73.9842H65.9375V76.328H63.5938V73.9842Z" fill="black"/>
<path d="M69.4529 68.125C69.4529 66.1865 67.8759 64.6093 65.9373 64.6093H57.7342V71.6406H65.9373C67.8758 71.6406 69.4529 70.0634 69.4529 68.125ZM60.0779 66.9531H65.9373C66.5834 66.9531 67.1092 67.4787 67.1092 68.125C67.1092 68.7712 66.5834 69.2968 65.9373 69.2968H60.0779V66.9531Z" fill="black"/>
<path d="M31.9533 68.125C31.9533 70.0634 33.5303 71.6406 35.4689 71.6406H43.672V64.6093H35.4689C33.5303 64.6093 31.9533 66.1865 31.9533 68.125ZM41.3281 69.2968H35.4687C34.8227 69.2968 34.2969 68.7712 34.2969 68.125C34.2969 67.4787 34.8227 66.9531 35.4687 66.9531H41.3281V69.2968Z" fill="black"/>
<path d="M47.1875 68.125C47.1875 70.0634 48.7645 71.6406 50.7031 71.6406C52.6416 71.6406 54.2188 70.0634 54.2188 68.125C54.2188 66.1865 52.6417 64.6093 50.7031 64.6093C48.7645 64.6093 47.1875 66.1865 47.1875 68.125ZM51.875 68.125C51.875 68.7712 51.3494 69.2968 50.7031 69.2968C50.0569 69.2968 49.5312 68.7712 49.5312 68.125C49.5312 67.4787 50.0569 66.9531 50.7031 66.9531C51.3492 66.9531 51.875 67.4787 51.875 68.125Z" fill="black"/>
<path d="M50.7031 39.1363C57.6562 39.1363 64.1933 36.4286 69.1098 31.512L69.9386 30.6833L56.1962 16.9411L55.3676 17.7697C54.1217 19.0158 52.4651 19.7019 50.7031 19.7019C48.9411 19.7019 47.2845 19.0156 46.0386 17.7697L45.21 16.9411L31.4677 30.6833L32.2962 31.512C37.213 36.4286 43.7498 39.1363 50.7031 39.1363ZM45.2634 20.2022C46.8169 21.398 48.7103 22.0456 50.7031 22.0456C52.6959 22.0456 54.5894 21.398 56.1426 20.2022L66.6039 30.6633C62.2398 34.6244 56.638 36.7925 50.7031 36.7925C44.7683 36.7925 39.1662 34.6244 34.8022 30.6633L45.2634 20.2022Z" fill="black"/>
<path d="M57.7344 30.6252C57.7344 28.6867 56.1574 27.1095 54.2188 27.1095H52.4194C51.593 25.6802 50.0514 24.7658 48.3592 24.7658C45.7745 24.7658 43.6717 26.8686 43.6717 29.4533C43.6717 32.038 45.7745 34.1408 48.3592 34.1408H54.2188C56.1574 34.1408 57.7344 32.5636 57.7344 30.6252ZM46.0156 29.4533C46.0156 28.1609 47.067 27.1095 48.3594 27.1095C49.3513 27.1095 50.2395 27.7375 50.5699 28.6719L50.8461 29.4533H54.2188C54.8649 29.4533 55.3906 29.9789 55.3906 30.6252C55.3906 31.2714 54.865 31.797 54.2188 31.797H48.3594C47.067 31.797 46.0156 30.7456 46.0156 29.4533Z" fill="black"/>
<path d="M15.1236 15.5688L16.1686 13.4709C11.9149 11.3517 6.83564 11.3516 2.58157 13.4709L3.62657 15.5688C7.22626 13.7756 11.5241 13.7755 15.1236 15.5688Z" fill="black"/>
<path d="M6.37268 16.9975L7.03831 19.2448C8.56706 18.792 10.1833 18.792 11.7121 19.2448L12.3777 16.9975C10.4133 16.4159 8.3369 16.4159 6.37268 16.9975Z" fill="black"/>
</svg>
