<svg width="0" height="0" class="hidden">
  <symbol fill="none" xmlns="http://www.w3.org/2000/svg" viewBox="0 0 20 20" id="clock">
    <path d="M9.99 0C4.47 0 0 4.48 0 10C0 15.52 4.47 20 9.99 20C15.52 20 20 15.52 20 10C20 4.48 15.52 0 9.99 0ZM10 18C5.58 18 2 14.42 2 10C2 5.58 5.58 2 10 2C14.42 2 18 5.58 18 10C18 14.42 14.42 18 10 18ZM9.78 5H9.72C9.32 5 9 5.32 9 5.72V10.44C9 10.79 9.18 11.12 9.49 11.3L13.64 13.79C13.98 13.99 14.42 13.89 14.62 13.55C14.83 13.21 14.72 12.76 14.37 12.56L10.5 10.26V5.72C10.5 5.32 10.18 5 9.78 5Z" fill="white"></path>
  </symbol>
  <symbol fill="none" xmlns="http://www.w3.org/2000/svg" viewBox="0 0 12 8" id="arrow">
    <path d="M2.12 1.29L6 5.17L9.88 1.29C10.27 0.899998 10.9 0.899998 11.29 1.29C11.68 1.68 11.68 2.31 11.29 2.7L6.7 7.29C6.31 7.68 5.68 7.68 5.29 7.29L0.700001 2.7C0.310001 2.31 0.310001 1.68 0.700001 1.29C1.09 0.909998 1.73 0.899998 2.12 1.29Z" fill="#323232"></path>
  </symbol>
  <symbol fill="none" xmlns="http://www.w3.org/2000/svg" viewBox="0 0 20 16" id="mail">
    <path d="M18 0H2C0.9 0 0.00999999 0.9 0.00999999 2L0 14C0 15.1 0.9 16 2 16H18C19.1 16 20 15.1 20 14V2C20 0.9 19.1 0 18 0ZM17 14H3C2.45 14 2 13.55 2 13V4L8.94 8.34C9.59 8.75 10.41 8.75 11.06 8.34L18 4V13C18 13.55 17.55 14 17 14ZM10 7L2 2H18L10 7Z" fill="white"></path>
  </symbol>
</svg>